<svg width="576" height="400" viewBox="0 0 576 400" fill="none" xmlns="http://www.w3.org/2000/svg">
<path d="M533.074 414.069C531.282 413.835 529.576 413.612 527.615 413.357C527.458 412.44 527.16 411.546 527.18 410.658C527.241 407.831 527.342 405 527.569 402.182C528.324 392.773 529.895 383.482 531.669 374.218C532.838 368.118 532.565 361.944 531.173 355.961C529.833 350.198 529.762 344.427 529.939 338.629C530.215 329.521 530.762 320.42 531.172 311.316C531.344 307.49 531.459 303.662 531.605 299.728C531.044 299.649 530.595 299.531 530.148 299.533C524.703 299.562 519.347 298.734 513.992 297.873C512.52 297.636 511.037 297.472 509.557 297.289C508.58 297.167 507.982 296.714 507.33 295.868C505.468 293.451 503.464 291.114 501.287 288.978C499.038 286.771 495.918 286.067 493.036 285.096C490.299 284.173 487.858 282.806 485.651 281.033C481.666 277.833 477.603 274.76 473.163 272.209C472.691 271.938 472.221 271.631 471.827 271.259C467.77 267.434 463.806 263.506 459.648 259.797C458.036 258.359 456.06 257.28 454.134 256.255C451.654 254.935 450.585 253.067 451.337 250.32C452.731 245.219 453.005 239.953 453.697 234.756C454.332 229.989 455.152 225.285 456.554 220.69C457.767 216.714 459.101 212.776 460.31 208.798C460.985 206.578 461.146 204.32 460.203 202.104C458.958 199.178 459.316 196.447 461.132 193.85C462.481 191.92 463.648 189.853 465.109 188.017C465.909 187.012 467.101 186.278 468.21 185.57C469.487 184.756 470.873 184.725 472.237 185.486C473.398 186.132 474.576 186.224 475.861 185.757C477.534 185.148 479.121 185.189 480.228 186.899C480.271 186.963 480.328 187.044 480.393 187.063C482.569 187.683 484.044 189.351 485.819 190.581C486.591 191.116 487.134 191.595 487.372 192.476C488.257 195.738 488.196 198.79 485.913 201.602C485.221 202.455 485.016 203.727 484.681 204.837C484.411 205.731 484.399 206.713 484.067 207.576C483.172 209.903 482.27 210.463 479.789 210.447C479.004 210.442 478.217 210.41 477.431 210.385C476.729 210.363 476.026 210.335 475.039 210.298C474.833 211.282 474.508 212.232 474.455 213.197C474.178 218.298 474.024 223.406 473.716 228.505C473.561 231.087 473.158 233.655 472.894 236.232C472.662 238.496 472.464 240.764 472.259 243.031C472.149 244.248 472.63 245.161 473.692 245.779C476.67 247.511 479.581 249.371 482.645 250.935C484.08 251.669 485.804 251.835 487.396 252.263C491.944 253.485 496.498 254.687 501.036 255.948C502.166 256.262 503.252 256.744 504.341 257.189C507.387 258.435 510.424 259.702 513.536 260.99C515.128 259.269 516.876 259.319 518.76 260.164C519.76 260.613 520.821 260.926 521.852 261.306C524.166 262.162 526.495 262.418 529.002 262.212C534.005 261.8 539.037 261.758 544.054 261.5C553.037 261.037 561.823 259.441 570.42 256.8C570.563 256.756 570.682 256.632 570.9 256.486C571.001 255.945 571.098 255.327 571.233 254.717C571.47 253.651 571.085 252.838 570.174 252.325C569.29 251.829 568.384 251.31 567.42 251.028C565.267 250.397 563.947 249.116 563.318 246.92C562.984 245.756 562.271 244.668 561.586 243.642C560.512 242.035 560.519 240.895 561.815 239.421C564.881 235.93 564.655 234.593 560.602 232.247C560.534 232.208 560.467 232.167 560.399 232.128C557.551 230.506 557.485 230.318 558.678 227.347C558.851 226.915 558.982 226.466 559.199 225.829C558.452 225.669 557.786 225.585 557.159 225.38C556.269 225.091 555.329 224.839 554.55 224.347C553.071 223.414 552.955 222.131 554.156 220.809C555.264 219.588 556.411 218.398 557.598 217.255C558.583 216.308 559.082 215.257 558.756 213.885C558.372 212.273 558.997 210.948 560.005 209.77C562.504 206.852 565.028 203.956 567.585 201C567.588 201.02 567.605 200.922 567.564 200.87C565.505 198.205 566.125 195.631 567.762 193.043C568.218 192.321 568.457 191.465 568.822 190.682C569.775 188.638 571.367 187.54 573.643 187.502C577.167 187.443 580.666 187.286 584.035 188.826C585.956 189.705 588.093 189.819 590.269 189.683C593.826 189.46 597.296 190.12 600.636 191.402C602.174 191.993 603.7 192.635 605.276 193.097C606.47 193.446 607.431 194.011 608.146 195.011C610.373 198.131 613.057 200.92 614.55 204.569C615.185 206.119 615.81 207.601 615.848 209.282C615.882 210.774 615.994 212.27 615.926 213.757C615.686 219.035 613.942 223.714 610.136 227.484C608.855 228.752 608.209 230.281 607.632 231.942C607.18 233.241 606.6 234.686 605.629 235.576C603.558 237.47 603.168 239.861 602.953 242.376C602.792 244.263 603.413 246.019 603.816 247.89C605.189 247.465 606.297 246.815 607.358 246.883C608.365 246.947 609.323 247.764 609.888 248.045C610.579 249.695 611.016 251.007 611.684 252.188C611.924 252.613 612.777 252.998 613.242 252.898C613.654 252.809 614.104 252.06 614.206 251.537C614.446 250.31 614.589 249.044 614.595 247.793C614.647 238.184 616.63 228.926 619.64 219.86C620.203 218.166 620.335 216.531 619.993 214.772C619.166 210.534 618.277 206.296 617.742 202.017C617.267 198.215 617.233 194.357 617.006 190.524C616.876 188.329 616.947 186.102 616.585 183.946C615.58 177.943 615.893 171.876 615.462 165.849C615.21 162.335 614.909 158.812 614.379 155.332C613.924 152.343 612.473 149.694 610.762 147.213C610.545 146.898 610.295 146.532 609.97 146.375C606.621 144.766 605.101 141.66 603.347 138.656C601.077 134.764 601.315 130.669 601.95 126.526C602.131 125.344 602.874 124.243 603.39 123.118C603.679 122.486 603.993 121.859 604.36 121.271C605.142 120.019 605.823 118.662 606.809 117.591C608.123 116.165 609.791 115.784 611.761 116.459C613.597 117.088 615.557 117.347 617.429 117.886C618.391 118.163 619.382 118.557 620.178 119.144C621.49 120.113 622.903 120.66 624.491 120.896C625.183 120.999 625.887 121.172 626.524 121.455C628.176 122.187 628.765 123.458 628.638 125.252C628.455 127.826 628.468 130.414 628.272 132.987C628.088 135.407 627.977 137.873 627.406 140.214C626.742 142.937 626.874 145.467 627.849 148.051C629.04 151.209 630.063 154.434 631.294 157.576C634.115 164.778 636.255 172.15 636.987 179.873C637.511 185.395 638.939 190.707 640.888 195.846C643.198 201.94 643.397 208.076 642.247 214.386C641.684 217.474 641.175 220.586 640.906 223.711C640.733 225.726 641.035 227.784 641.133 229.821C641.344 234.213 641.677 238.604 641.746 242.998C641.827 248.15 640.778 253.177 639.167 258.034C638.397 260.357 638.83 262.101 640.317 263.806C640.627 264.161 640.942 264.513 641.246 264.873C642.951 266.9 643.433 269.116 643.249 271.844C642.733 279.491 640.563 286.668 637.484 293.564C635.504 297.999 634.643 302.693 633.341 307.291C632.209 311.29 631.067 315.294 629.719 319.224C628.443 322.946 627.317 326.643 626.888 330.602C626.468 334.487 625.662 338.359 624.684 342.149C622.819 349.37 622.11 356.668 622.493 364.097C622.776 369.583 622.986 375.074 623.308 380.557C623.594 385.413 624.07 390.258 624.309 395.116C624.514 399.266 624.547 403.427 624.539 407.584C624.538 408.264 624.113 409.227 623.574 409.566C622.275 410.383 620.846 411.114 619.37 411.49C617.917 411.86 616.483 412.375 615.809 413.576C613.938 416.901 610.715 417.836 607.457 418.746C602.924 420.012 598.419 421.522 593.795 422.283C588.48 423.157 583.058 423.484 577.667 423.758C573.364 423.977 569.037 423.829 564.723 423.722C558.445 423.567 552.151 423.412 545.991 422.035C543.249 421.422 540.579 420.486 537.88 419.686C535.843 419.083 534.518 417.755 533.843 415.74C533.646 415.151 533.325 414.604 533.074 414.069Z" fill="#CFCFCF"/>
<path d="M20.7387 160.605C21.2024 159.02 22.3616 158.485 23.8594 158.595C26.3194 158.775 28.774 159.018 31.2341 159.195C32.9434 159.318 34.0686 160.209 34.639 161.763C35.5148 164.15 36.4744 166.523 37.0807 168.982C37.3668 170.14 37.0384 171.51 36.7578 172.731C36.5112 173.802 36.0963 174.904 35.4882 175.813C33.524 178.746 34.0879 181.746 35.1432 184.726C37.3153 190.86 40.412 196.434 44.7627 201.366C48.9754 206.141 52.843 211.22 56.8754 216.154C59.4468 219.3 62.0771 222.4 64.6126 225.574C66.0018 227.314 67.2714 229.15 68.5566 230.971C70.254 233.376 71.8236 235.878 73.6323 238.194C74.3802 239.152 75.5312 239.875 76.6278 240.467C81.4081 243.053 86.0477 245.825 89.9374 249.684C92.2558 251.984 94.6184 254.245 96.8292 256.647C97.9258 257.837 99.189 258.558 100.706 258.776C104.913 259.381 108.665 260.889 111.895 263.734C113.499 265.147 115.463 265.732 117.676 265.434C119.906 265.134 122.129 265.219 124.246 266.149C124.529 266.273 124.957 266.473 125.139 266.357C127.078 265.123 129.14 265.811 131.404 266.074C131.406 263.527 133.371 263.029 135.357 262.321C134.27 260.864 133.359 259.479 132.265 258.257C131.859 257.803 131.023 257.514 130.391 257.527C128.867 257.557 127.743 256.866 126.89 255.782C125.466 253.97 124.069 252.121 122.849 250.169C121.443 247.919 121.602 247.508 123.781 245.762C123.66 245.44 123.537 245.078 123.391 244.726C120.695 238.19 121.203 231.834 124.394 225.598C125.856 222.742 127.638 220.135 129.788 217.744C131.276 216.089 132.62 214.294 133.913 212.48C134.624 211.485 135.235 211.499 136.043 212.29C136.824 211.806 136.911 210.346 138.634 211.217C139.829 211.821 141.697 211.201 143.233 210.943C143.55 210.889 143.73 210.014 144.008 209.447C144.87 209.969 145.357 210.209 145.778 210.534C146.377 210.999 146.748 211.81 147.777 211.501C148.015 211.429 148.47 211.84 148.729 212.117C151.439 215.013 154.772 217.061 158.204 218.925C161.726 220.837 163.523 223.797 164.159 227.644C164.523 229.838 165.017 232.01 165.471 234.285C166.304 234.441 167.079 234.536 167.826 234.738C169.394 235.159 170.088 235.934 169.828 237.492C169.388 240.133 169.657 242.711 169.93 245.333C170.232 248.251 169.139 249.414 166.045 249.67C166.093 251.231 166.094 252.81 166.205 254.381C166.316 255.963 166.651 256.256 168.231 256.394C169.262 256.485 170.3 256.49 171.326 256.609C174.295 256.951 177.093 257.583 177.811 261.111C180.364 260.335 182.638 259.631 184.488 257.847C185.424 256.943 186.741 256.318 187.995 255.882C190.363 255.058 191.959 253.486 192.845 251.249C194.301 247.567 196.672 244.661 199.865 242.383C201.482 241.23 202.42 239.727 203.008 237.78C204.316 233.44 205.64 229.069 207.454 224.928C208.975 221.455 211.093 218.22 213.149 215.009C214.726 212.547 215.861 210.168 215.832 207.065C215.776 200.906 217.306 194.919 218.607 188.926C220.532 180.054 222.502 171.19 224.292 162.29C225.613 155.726 225.47 149.158 223.722 142.644C223.366 141.317 222.699 140.365 221.66 139.555C220.34 138.527 219.016 137.496 217.775 136.376C216.245 134.995 215.344 133.309 215.248 131.156C215.177 129.577 214.783 128.011 214.515 126.443C214.145 124.282 214.623 122.533 216.666 121.354C218.595 120.241 220.444 118.992 222.342 117.825C223.673 117.007 225.009 116.673 226.199 118.085C226.812 117.661 227.324 117.297 227.846 116.948C228.805 116.308 229.948 116.209 230.772 116.865C231.962 117.814 233.255 118.146 234.682 118.286C234.909 118.308 235.177 118.404 235.337 118.557C237.019 120.165 239.188 120.976 241.104 122.189C242.002 122.759 242.496 124.037 243.052 125.059C243.728 126.301 244.127 127.714 244.913 128.87C246.222 130.795 246.665 132.676 245.814 134.934C245.201 136.56 245.018 138.343 244.503 140.012C243.964 141.755 243.363 143.496 242.592 145.145C241.829 146.777 241.497 148.44 241.428 150.216C241.139 157.775 240.933 165.34 240.457 172.888C239.896 181.782 239.166 190.669 238.343 199.544C238.065 202.54 237.484 205.547 236.683 208.45C234.011 218.135 231.778 227.882 230.847 237.92C230.262 244.227 228.275 250.223 225.652 255.967C224.879 257.659 224.689 259.131 225.592 260.709C226.721 262.681 226.596 264.626 225.739 266.665C224.385 269.888 223.254 273.207 221.806 276.384C220.224 279.853 218.583 283.321 216.622 286.582C213.284 292.137 210.619 297.991 208.191 303.973C207.501 305.671 206.906 307.416 206.083 309.045C204.801 311.582 204.328 314.307 203.808 317.051C202.889 321.896 201.751 326.701 200.911 331.558C200.357 334.764 200.21 338.037 199.802 341.27C198.392 352.474 199.014 363.701 199.359 374.926C199.399 376.2 199.415 377.474 199.447 378.748C199.524 381.789 199.947 384.758 200.808 387.697C201.816 391.131 202.464 394.672 203.499 398.097C204.325 400.827 205.372 403.51 206.554 406.107C207.726 408.681 208.585 411.282 208.685 414.122C208.718 415.065 208.85 416.007 208.984 416.943C209.171 418.262 208.985 418.546 207.571 418.848C206.87 418.998 206.164 419.126 205.457 419.243C202.476 419.736 199.509 420.372 196.507 420.667C193.588 420.954 190.634 420.901 187.696 420.978C185.393 421.039 183.09 421.066 180.787 421.116C176.096 421.217 171.404 421.303 166.714 421.435C164.566 421.496 162.418 421.786 160.276 421.731C157.101 421.65 153.927 421.134 150.761 421.208C147.114 421.292 143.471 421.773 139.835 422.16C131.75 423.022 123.652 423.51 115.516 423.248C114.503 423.216 113.482 423.482 112.462 423.571C111.117 423.689 110.491 423.055 110.755 421.734C112.143 414.791 113.573 407.857 114.961 400.914C115.193 399.751 115.409 398.562 115.426 397.381C115.511 391.656 115.55 385.929 115.559 380.203C115.581 367.715 113.692 355.573 108.475 344.138C105.163 336.878 103.433 329.245 102.299 321.418C101.761 317.712 101.178 314.012 100.504 310.329C100.342 309.443 99.9038 308.482 99.3003 307.823C97.5044 305.864 96.0619 303.698 94.8723 301.335C93.668 298.944 92.0194 296.926 89.6863 295.53C86.1369 293.406 83.8102 290.201 81.9647 286.617C80.2167 283.223 78.5856 279.769 76.8974 276.344C76.7226 275.989 76.5367 275.633 76.3095 275.311C72.5918 270.042 68.9798 264.693 65.103 259.544C62.6659 256.307 59.9776 253.228 57.145 250.328C49.9018 242.914 44.2502 234.36 39.0081 225.509C33.6132 216.399 28.3434 207.216 23.024 198.062C22.6247 197.374 22.207 196.687 21.9025 195.956C21.2668 194.432 20.1472 193.391 18.9061 192.336C16.9778 190.696 15.2445 188.827 13.4514 187.031C12.4955 186.074 11.5976 185.061 10.6583 184.087C9.42456 182.808 8.7732 181.352 9.13108 179.534C9.48988 177.715 9.45952 175.917 8.98572 174.097C8.49444 172.21 9.4126 170.697 10.5755 169.306C11.0272 168.766 11.6786 168.268 11.8515 167.643C12.3446 165.866 13.0714 164.38 14.9317 163.689C15.1746 163.599 15.3282 163.217 15.4818 162.946C17.0376 160.214 17.1802 160.142 20.7387 160.605Z" fill="#CFCFCF"/>
<path d="M419.757 222.047C419.562 217.941 418.957 213.848 418.4 209.767C416.946 199.117 411.707 190.346 404.449 182.718C398.743 176.72 392.331 171.491 385.675 166.57C383.187 164.73 380.712 162.872 378.226 161.029C372.347 156.674 366.459 152.33 360.591 147.958C360.035 147.543 359.601 146.965 358.982 146.33C365.212 143.58 371.217 140.97 377.187 138.282C383.694 135.35 390.081 132.222 395.387 127.27C397.933 124.894 399.771 122.167 400.568 118.758C400.886 117.398 400.714 116.127 399.916 114.991C398.535 113.028 396.837 111.432 394.454 110.772C391.732 110.017 389.003 109.321 386.124 109.755C385.54 109.843 384.917 109.678 383.937 109.599C384.862 107.924 385.637 106.551 386.384 105.162C388.409 101.405 388.048 99.7759 384.581 97.3121C379.608 93.7784 374.753 90.0515 369.594 86.8085C362.765 82.5158 355.726 78.5515 348.705 74.5734C346.32 73.2229 345.617 73.5191 344.003 75.7335C342.516 77.7723 341.109 79.868 339.433 82.2711C338.813 80.6877 338.415 79.3197 337.76 78.0869C336.976 76.6121 336.189 75.0362 335.028 73.8825C330.343 69.2264 324.399 69.3699 320.481 74.6581C319.604 75.8412 318.9 77.2442 318.473 78.6536C316.754 84.3291 315.869 90.1067 315.7 96.0867C315.402 106.615 315.573 117.086 317.134 127.516C317.234 128.182 317.183 129.215 316.772 129.551C315.309 130.744 315.271 132.321 315.285 133.91C315.304 136.047 314.613 137.896 313.669 139.797C312.811 141.523 311.956 143.541 312.052 145.38C312.198 148.168 311.153 150.258 309.702 152.367C308.903 153.526 308.177 154.736 307.438 155.935C303.715 161.982 299.447 167.489 293.408 171.501C291.416 172.825 289.772 174.758 288.196 176.608C283.536 182.079 280.123 188.359 276.852 194.71C275.823 196.707 274.982 198.8 274.053 200.849C273.249 202.625 273.546 204.339 274.413 205.983C278.405 213.555 281.777 221.382 284.31 229.567C286.273 235.911 289.118 241.784 293.482 246.871C297.456 251.503 301.387 256.175 305.289 260.869C309.334 265.733 313.106 270.812 314.68 277.065C316.075 282.611 317.139 288.241 318.334 293.837C318.451 294.383 318.536 294.957 318.503 295.51C318.212 300.473 317.942 305.438 317.558 310.393C317.304 313.667 316.824 316.922 316.531 320.192C315.903 327.205 315.218 334.217 314.774 341.243C314.455 346.298 314.316 351.378 314.414 356.442C314.516 361.785 315.222 367.121 315.237 372.461C315.25 376.871 315.992 381.01 317.633 385.075C318.292 386.708 318.533 388.515 318.907 390.256C319.223 391.723 319.43 393.214 319.73 394.685C320.497 398.424 322.433 400.994 326.47 401.621C328.597 401.951 330.665 402.724 332.795 402.942C338.112 403.484 343.443 403.982 348.779 404.206C355.246 404.476 361.722 404.335 368.173 405.161C371.03 405.526 373.971 405.462 376.858 405.301C381.81 405.027 384.859 401.989 386.879 397.754C388.641 394.055 389.334 390.07 389.529 386.026C389.795 380.498 389.825 374.959 390.064 369.43C390.205 366.161 390.541 362.9 390.814 359.637C390.955 357.953 391.155 356.273 391.315 354.59C391.643 351.131 391.724 347.628 392.335 344.22C393.696 336.637 395.185 329.087 395.631 321.371C395.75 319.326 396.135 317.283 396.551 315.271C398.111 307.737 399.769 300.223 401.322 292.687C402.444 287.241 403.886 282.014 407.122 277.286C411.458 270.953 413.789 263.677 415.624 256.28C416.48 252.826 416.962 249.281 417.755 245.81C419.546 237.976 420.137 230.038 419.757 222.047ZM357.478 138.493C361.653 134.863 366.017 131.414 369.895 127.486C373.633 123.702 376.838 119.393 380.332 115.363C380.896 114.713 381.732 113.9 382.472 113.869C385.452 113.749 388.445 113.846 391.426 114C392.226 114.041 393.044 114.484 393.778 114.884C396.266 116.241 396.66 117.577 395.053 119.868C394.149 121.156 392.98 122.279 391.824 123.366C386.879 128.018 380.726 130.677 374.722 133.557C370.664 135.505 366.557 137.356 362.432 139.159C360.38 140.057 358.239 140.751 355.971 141.6C355.58 139.771 356.635 139.225 357.478 138.493ZM323.538 80.3087C323.975 78.4181 324.669 76.3453 327.022 75.981C329.24 75.6379 330.9 76.9571 331.959 78.6527C333.44 81.0245 334.594 83.6051 335.836 86.1222C336.422 87.3108 336.134 88.4811 335.525 89.6081C331.81 96.4823 328.873 103.694 326.504 111.122C325.225 115.136 324.342 119.276 323.257 123.353C323.099 123.946 322.804 124.503 322.572 125.076C322.431 125.056 322.288 125.035 322.146 125.015C321.85 121.577 321.536 118.141 321.261 114.701C320.625 106.73 321.023 98.763 321.658 90.8215C321.939 87.2878 322.736 83.7762 323.538 80.3087ZM379.164 197.573C378.823 197.289 378.482 197.006 378.139 196.724C378.33 196.54 378.521 196.356 378.713 196.172C378.922 196.564 379.132 196.957 379.342 197.35C379.282 197.424 379.223 197.498 379.164 197.573ZM386.095 241.206C380.791 241.989 379.487 241.242 378.754 237.102C379.545 235.798 381.104 235.302 382.06 233.936C384.071 231.06 384.635 228.164 383.768 224.893C383.237 222.893 382.764 220.977 383.381 218.84C383.727 217.644 383.406 216.233 383.291 214.928C383.038 212.036 382.667 209.153 382.465 206.259C382.382 205.064 382.451 203.809 382.73 202.648C383.639 198.874 381.684 194.366 378.123 193.111C376.891 192.677 376.686 191.725 376.294 190.824C374.815 187.427 372.975 184.314 369.837 182.162C369.296 181.791 368.78 181.351 368.187 181.097C366.432 180.348 365.008 179.392 364.018 177.59C362.874 175.507 360.814 174.852 358.431 175.271C357.234 175.482 356.001 175.712 354.804 175.631C353.301 175.53 352.246 175.915 351.689 177.773C349.372 176.092 347.352 176.324 345.316 177.499C343.526 178.532 341.655 179.432 339.922 180.548C337.739 181.954 336.047 183.724 335.688 186.537C335.457 188.347 335.099 188.526 333.233 188.184C331.706 187.905 330.427 188.322 329.258 189.16C325.152 192.104 323.293 196.089 324.121 201.118C324.32 202.328 324.263 203.176 323.5 204.197C321.513 206.854 321.231 209.71 323.181 212.557C324.559 214.568 324.379 216.609 323.479 218.71C321.242 223.933 322.275 228.647 326.56 232.324C327.615 233.23 328.834 233.963 330.037 234.675C331.509 235.545 332.429 236.834 333.253 238.228C327.594 234.561 321.44 231.697 316.519 227.019C316.183 226.7 315.778 226.422 315.358 226.228C311.683 224.532 309.643 221.551 308.43 217.796C307.77 215.751 307.023 213.663 305.895 211.858C304.775 210.068 303.241 208.485 301.677 207.041C300.088 205.575 299.836 205.259 300.509 203.221C300.538 203.131 300.56 203.039 300.603 202.956C303.727 196.921 305.302 190.309 307.664 183.992C309.84 178.171 312.747 172.702 316.173 167.515C316.418 167.142 316.749 166.826 317.124 166.386C321.127 169.586 325.746 171.157 330.441 172.464C332.105 172.928 333.988 173.089 335.689 172.836C338.709 172.386 340.41 169.969 340.046 166.952C339.892 165.681 340.13 164.683 340.611 163.502C341.654 160.94 342.941 158.393 342.249 155.392C341.896 153.859 342.894 152.809 344.558 152.394C346.728 151.852 348.465 152.814 349.925 154.199C352.781 156.911 355.582 159.686 358.301 162.536C363.247 167.722 367.306 173.528 370.905 179.751C373.568 184.356 377.022 188.512 380.212 192.801C382.838 196.331 385.596 199.762 388.331 203.284C388.13 203.656 387.997 204.01 387.775 204.293C386.629 205.742 386.625 207.147 387.692 208.68C388.073 209.226 388.274 210.039 388.237 210.711C387.932 216.332 387.581 221.949 387.186 227.564C386.862 232.132 386.458 236.696 386.095 241.206ZM324.917 222.466C326.055 223.792 326.712 225.245 326.004 227.029C324.806 225.673 324.535 224.146 324.917 222.466ZM326.269 200.909C326.292 199.742 326.313 198.646 326.338 197.347C328.238 199.705 328.23 200.188 326.269 200.909Z" fill="#CFCFCF"/>
</svg>
