<svg width="417" height="438" viewBox="0 0 417 438" fill="none" xmlns="http://www.w3.org/2000/svg">
<path fill-rule="evenodd" clip-rule="evenodd" d="M416.688 20.9103C388.807 -6.9701 343.609 -6.9701 315.729 20.9103L311.181 25.4579L412.14 126.417L416.688 121.869C444.568 93.9889 444.568 48.7907 416.688 20.9103ZM268.792 67.8222L302.645 33.9697L403.595 134.92L369.742 168.772L268.792 67.8222ZM207.644 117.732L183.928 94.0154C166.531 98.6291 63.7476 125.822 47.1965 132.842C18.893 144.858 -3.59371 176.546 0.477961 204.321C2.06433 215.187 7.72237 224.164 17.5314 229.174C24.7362 216.417 35.2987 204.995 48.3466 196.534C66.5237 184.742 187.246 127.435 207.644 117.732ZM219.145 112.272C236.767 103.904 254.469 95.5357 271.562 87.4584L258.54 74.437C238.354 79.6852 217.612 85.1185 197.346 90.4725L219.145 112.272ZM250.45 143.589C265.229 132.128 279.903 120.772 293.982 109.892L280.538 96.4478C263.484 104.499 245.77 112.867 228.108 121.248L250.45 143.589Z" fill="#84ACD4" fill-opacity="0.5"/>
<path fill-rule="evenodd" clip-rule="evenodd" d="M240.905 150.993L216.62 126.709C197.835 135.632 72.4459 195.147 54.8637 206.556C26.4149 225.024 12.587 258.893 22.3828 281.353C29.6537 298.01 47.421 303.311 65.4263 299.53C69.6962 291.744 75.1956 284.565 81.3428 278.405C97.6956 262.065 222.305 165.442 240.905 150.993ZM278.264 188.352L249.418 159.507C90.7024 282.701 88.5872 286.839 81.356 296.728C72.6971 308.572 66.9069 323.405 67.8058 337.735C69.6434 367.215 98.7135 378.121 128.736 363.804C129.568 363.011 130.626 362.482 131.776 362.271C138.875 358.477 145.154 353.705 150.905 347.954C167.139 331.72 263.854 206.926 278.264 188.352ZM285.68 178.808C297.128 164.041 308.484 149.367 319.364 135.275L302.509 118.42C288.417 129.313 273.729 140.669 258.976 152.104L285.68 178.808ZM310.89 220.965L286.791 196.866C272.368 215.439 175.718 340.075 159.379 356.428C153.205 362.601 145.829 368.207 138.003 372.477C130.441 409.479 161.732 429.533 198.205 411.911C211.094 405.685 222.834 395.373 231.043 382.735C242.452 365.14 301.901 239.883 310.89 220.965ZM316.35 209.477C324.731 191.816 333.099 174.115 341.15 157.048L327.891 143.789C317.011 157.868 305.668 172.541 294.194 187.321L316.35 209.477Z" fill="#84ACD4" fill-opacity="0.5"/>
<path fill-rule="evenodd" clip-rule="evenodd" d="M343.57 253.657L319.867 229.941C310.415 249.824 252.856 371.062 241.064 389.239C232.59 402.287 221.181 412.849 208.424 420.054C213.435 429.863 222.411 435.508 233.277 437.108C246.484 439.038 261.092 434.847 274.007 426.492C287.135 418.005 298.424 405.301 304.756 390.389C311.776 373.838 338.956 271.081 343.57 253.657ZM347.126 240.253C352.48 219.987 357.9 199.245 363.161 179.059L350.14 166.037C342.076 183.13 333.694 200.831 325.326 218.453L347.126 240.253Z" fill="#84ACD4" fill-opacity="0.5"/>
</svg>
