<svg width="20" height="18" viewBox="0 0 20 18" fill="none" xmlns="http://www.w3.org/2000/svg">
<g id="calendar">
<path id="Vector" d="M0.55968 13.9236H15.2084C15.3398 13.9236 15.4668 13.8776 15.5675 13.7939C15.7082 13.676 18.9177 10.915 19.1134 4.955H3.38098C3.18602 10.3651 0.230196 12.908 0.199478 12.9334C0.0193962 13.0855 -0.0468594 13.3341 0.034157 13.5552C0.114613 13.7758 0.324291 13.9236 0.55968 13.9236ZM18.5716 1.59178H15.7689V1.03124C15.7689 0.71734 15.5223 0.470703 15.2084 0.470703C14.8945 0.470703 14.6478 0.71734 14.6478 1.03124V1.59178H11.8078V1.03124C11.8078 0.71734 11.5611 0.470703 11.2472 0.470703C10.9333 0.470703 10.6867 0.71734 10.6867 1.03124V1.59178H7.884V1.03124C7.884 0.71734 7.63736 0.470703 7.32346 0.470703C7.00956 0.470703 6.76292 0.71734 6.76292 1.03124V1.59178H3.96024C3.64633 1.59178 3.3997 1.83841 3.3997 2.15232V3.83393H19.1321V2.15232C19.1321 1.83841 18.8855 1.59178 18.5716 1.59178Z" fill="#F54F54"/>
<path id="Vector_2" d="M16.2889 14.6548C15.9846 14.9082 15.6025 15.0462 15.21 15.0462H3.40137V16.7278C3.40137 17.0376 3.65208 17.2883 3.9619 17.2883H18.5732C18.8831 17.2883 19.1338 17.0376 19.1338 16.7278V10.4443C18.0531 13.0957 16.545 14.4405 16.2889 14.6548Z" fill="#F54F54"/>
</g>
</svg>
