<svg width="13" height="12" viewBox="0 0 13 12" fill="none" xmlns="http://www.w3.org/2000/svg">
<g id="calendar">
<path id="Vector" d="M0.380294 9.14104H10.3339C10.4231 9.14104 10.5094 9.1098 10.5779 9.05288C10.6735 8.97282 12.8543 7.09675 12.9873 3.04701H2.29732C2.16485 6.72308 0.156414 8.45094 0.135542 8.46818C0.0131794 8.57158 -0.0318402 8.74046 0.0232091 8.89072C0.0778776 9.04061 0.220351 9.14104 0.380294 9.14104ZM12.6191 0.761753H10.7147V0.380876C10.7147 0.167586 10.5471 0 10.3338 0C10.1206 0 9.95296 0.167586 9.95296 0.380876V0.761753H8.02319V0.380876C8.02319 0.167586 7.85561 0 7.64231 0C7.42902 0 7.26144 0.167586 7.26144 0.380876V0.761753H5.35705V0.380876C5.35705 0.167586 5.18947 0 4.97618 0C4.76289 0 4.5953 0.167586 4.5953 0.380876V0.761753H2.69092C2.47763 0.761753 2.31004 0.929339 2.31004 1.14263V2.28526H13V1.14263C13 0.929339 12.8324 0.761753 12.6191 0.761753Z" fill="white"/>
<path id="Vector_2" d="M11.067 9.63633C10.8602 9.80854 10.6005 9.90229 10.3339 9.90229H2.31006V11.0449C2.31006 11.2554 2.48041 11.4258 2.69094 11.4258H12.6191C12.8296 11.4258 13 11.2554 13 11.0449V6.77539C12.2657 8.57696 11.241 9.49071 11.067 9.63633Z" fill="white"/>
</g>
</svg>
