<svg width="35" height="25" viewBox="0 0 35 25" fill="none" xmlns="http://www.w3.org/2000/svg">
<path d="M33.6471 10.7721H1.29412C0.950896 10.7721 0.621732 10.9231 0.379038 11.1919C0.136344 11.4607 0 11.8253 0 12.2054C0 12.5855 0.136344 12.9501 0.379038 13.2189C0.621732 13.4877 0.950896 13.6387 1.29412 13.6387H33.6471C33.9903 13.6387 34.3194 13.4877 34.5621 13.2189C34.8048 12.9501 34.9412 12.5855 34.9412 12.2054C34.9412 11.8253 34.8048 11.4607 34.5621 11.1919C34.3194 10.9231 33.9903 10.7721 33.6471 10.7721ZM1.29412 2.88903H33.6471C33.9903 2.88903 34.3194 2.73803 34.5621 2.46923C34.8048 2.20044 34.9412 1.83588 34.9412 1.45575C34.9412 1.07562 34.8048 0.711054 34.5621 0.442261C34.3194 0.173468 33.9903 0.0224609 33.6471 0.0224609H1.29412C0.950896 0.0224609 0.621732 0.173468 0.379038 0.442261C0.136344 0.711054 0 1.07562 0 1.45575C0 1.83588 0.136344 2.20044 0.379038 2.46923C0.621732 2.73803 0.950896 2.88903 1.29412 2.88903ZM33.6471 21.5217H1.29412C0.950896 21.5217 0.621732 21.6728 0.379038 21.9415C0.136344 22.2103 0 22.5749 0 22.955C0 23.3352 0.136344 23.6997 0.379038 23.9685C0.621732 24.2373 0.950896 24.3883 1.29412 24.3883H33.6471C33.9903 24.3883 34.3194 24.2373 34.5621 23.9685C34.8048 23.6997 34.9412 23.3352 34.9412 22.955C34.9412 22.5749 34.8048 22.2103 34.5621 21.9415C34.3194 21.6728 33.9903 21.5217 33.6471 21.5217Z" fill="#CBD5DC"/>
</svg>
