<svg width="46" height="46" viewBox="0 0 46 46" fill="none" xmlns="http://www.w3.org/2000/svg">
<path d="M45.884 14.137C45.7769 11.7408 45.3842 10.0937 44.8214 8.6662C44.241 7.15108 43.3481 5.79461 42.1783 4.66693C41.0352 3.52171 39.6511 2.63179 38.1331 2.06817C36.678 1.51318 35.0169 1.12557 32.5882 1.02003C30.1413 0.905334 29.3645 0.878906 23.1586 0.878906C16.9527 0.878906 16.1759 0.905334 13.7381 1.01105C11.3094 1.11676 9.63965 1.50455 8.19318 2.05918C6.65696 2.63179 5.28201 3.51273 4.13896 4.66693C2.97814 5.79453 2.07654 7.15998 1.50479 8.65757C0.942234 10.0937 0.549429 11.732 0.442365 14.128C0.326194 16.542 0.299316 17.3084 0.299316 23.4309C0.299316 29.5534 0.326194 30.3198 0.433257 32.7247C0.54041 35.1209 0.933483 36.768 1.49612 38.1955C2.07654 39.7106 2.97814 41.0671 4.13896 42.1948C5.28201 43.34 6.66607 44.2299 8.18407 44.7935C9.63956 45.3485 11.3003 45.7361 13.7294 45.8417C16.1668 45.9477 16.944 45.9738 23.1499 45.9738C29.3559 45.9738 30.1326 45.9477 32.5705 45.8417C34.9992 45.7361 36.6689 45.3486 38.1154 44.7935C39.6346 44.2141 41.0143 43.3278 42.1661 42.1916C43.3178 41.0554 44.2163 39.6943 44.8037 38.1955C45.3659 36.7595 45.7591 35.1208 45.8662 32.7247C45.9733 30.3198 46.0001 29.5534 46.0001 23.4309C46.0001 17.3084 45.991 16.5419 45.884 14.137ZM41.7677 32.5485C41.6693 34.7509 41.2944 35.9401 40.9819 36.733C40.2138 38.6975 38.6333 40.2567 36.642 41.0145C35.8384 41.3228 34.6242 41.6927 32.4005 41.7894C29.9896 41.8954 29.2666 41.9215 23.1677 41.9215C17.0688 41.9215 16.3367 41.8954 13.9344 41.7894C11.7021 41.6927 10.4966 41.3228 9.69296 41.0145C8.70207 40.6531 7.80011 40.0805 7.0679 39.3317C6.3089 38.6006 5.72848 37.7196 5.3622 36.742C5.04967 35.9491 4.67473 34.7509 4.57677 32.5575C4.46926 30.179 4.44283 29.4653 4.44283 23.4484C4.44283 17.4315 4.46926 16.7092 4.57677 14.3397C4.67473 12.1373 5.04967 10.9481 5.3622 10.1552C5.72848 9.17723 6.3089 8.28757 7.077 7.56503C7.81779 6.81624 8.71073 6.24363 9.70207 5.88271C10.5057 5.57438 11.7203 5.20439 13.9435 5.1074C16.3545 5.00168 17.0779 4.97526 23.1764 4.97526C29.2843 4.97526 30.0074 5.00168 32.4096 5.1074C34.642 5.20448 35.8475 5.57429 36.6511 5.88262C37.642 6.24363 38.5441 6.81624 39.2762 7.56503C40.0352 8.2963 40.6156 9.17723 40.9819 10.1552C41.2944 10.9481 41.6693 12.1459 41.7677 14.3397C41.8748 16.7182 41.9016 17.4315 41.9016 23.4484C41.9016 29.4653 41.8749 30.17 41.7677 32.5485Z" fill="white"/>
<path d="M23.1587 11.846C16.6761 11.846 11.4165 17.0345 11.4165 23.4303C11.4165 29.826 16.6761 35.0146 23.1587 35.0146C29.6414 35.0146 34.9008 29.826 34.9008 23.4303C34.9008 17.0345 29.6414 11.846 23.1587 11.846ZM23.1587 30.9447C18.9531 30.9447 15.5417 27.5797 15.5417 23.4303C15.5417 19.2809 18.9531 15.9159 23.1586 15.9159C27.3645 15.9159 30.7755 19.2809 30.7755 23.4303C30.7755 27.5797 27.3644 30.9447 23.1587 30.9447ZM38.1067 11.3879C38.1067 12.8814 36.8792 14.0924 35.365 14.0924C33.8512 14.0924 32.6238 12.8814 32.6238 11.3879C32.6238 9.89418 33.8512 8.68359 35.3651 8.68359C36.8791 8.68359 38.1067 9.89409 38.1067 11.3879Z" fill="white"/>
</svg>
