<svg width="66" height="66" viewBox="0 0 66 66" fill="none" xmlns="http://www.w3.org/2000/svg">
<path d="M33 0C42.1105 0 50.361 3.69465 56.3332 9.66683C62.3053 15.639 66 23.8895 66 33C66 42.1105 62.3054 50.361 56.3332 56.3332C50.361 62.3053 42.1105 66 33 66C23.8895 66 15.639 62.3054 9.66683 56.3332C3.69468 50.361 0 42.1105 0 33C0 23.8895 3.69465 15.639 9.66683 9.66683C15.639 3.69468 23.8895 0 33 0ZM54.6665 11.3335C49.1212 5.78812 41.4604 2.35767 33 2.35767C24.5396 2.35767 16.8788 5.78812 11.3335 11.3335C5.78816 16.8788 2.35771 24.5396 2.35771 33C2.35771 41.4604 5.78816 49.1211 11.3335 54.6665C16.8788 60.2118 24.5396 63.6423 33 63.6423C41.4604 63.6423 49.1212 60.2118 54.6665 54.6665C60.2118 49.1211 63.6423 41.4604 63.6423 33C63.6423 24.5395 60.2118 16.8788 54.6665 11.3335Z" fill="#FAFAFA"/>
<path fill-rule="evenodd" clip-rule="evenodd" d="M38.8571 42.2177L37.1415 40.5021L30.5236 33.884L28.8077 32.1684C28.3489 31.7095 27.5999 31.7095 27.1411 32.1684C26.682 32.6275 26.682 33.3764 27.1411 33.8353L28.857 35.5509L35.4748 42.1687L37.1905 43.8846C37.6493 44.3435 38.3983 44.3435 38.8571 43.8846C39.3162 43.4255 39.3162 42.6766 38.8571 42.2177V42.2177Z" fill="#FAFAFA"/>
<path fill-rule="evenodd" clip-rule="evenodd" d="M28.8094 33.832L30.525 32.1161L37.1431 25.4983L38.8587 23.7824C39.3176 23.3235 39.3176 22.5746 38.8587 22.1158C38.3996 21.6567 37.6507 21.6567 37.1918 22.1161L35.4762 23.8317L28.8584 30.4495L27.1425 32.1651C26.6836 32.6242 26.6836 33.3729 27.1425 33.832C27.6016 34.2909 28.3503 34.2909 28.8094 33.832H28.8094Z" fill="#FAFAFA"/>
</svg>
