<svg width="66" height="66" viewBox="0 0 66 66" fill="none" xmlns="http://www.w3.org/2000/svg">
<path d="M33 0C23.8895 0 15.639 3.69464 9.66682 9.66682C3.69468 15.639 0 23.8895 0 33C0 42.1105 3.69464 50.3609 9.66682 56.3331C15.639 62.3052 23.8895 65.9999 33 65.9999C42.1105 65.9999 50.3609 62.3053 56.3331 56.3331C62.3052 50.361 65.9999 42.1105 65.9999 33C65.9999 23.8895 62.3053 15.639 56.3331 9.66682C50.361 3.69468 42.1105 0 33 0ZM11.3335 11.3334C16.8788 5.78812 24.5396 2.35767 33 2.35767C41.4604 2.35767 49.1211 5.78812 54.6665 11.3334C60.2118 16.8788 63.6422 24.5395 63.6422 32.9999C63.6422 41.4603 60.2118 49.1211 54.6665 54.6664C49.1211 60.2117 41.4603 63.6422 33 63.6422C24.5395 63.6422 16.8788 60.2117 11.3335 54.6664C5.78815 49.1211 2.3577 41.4603 2.3577 32.9999C2.3577 24.5395 5.78815 16.8788 11.3335 11.3334Z" fill="#FAFAFA"/>
<path fill-rule="evenodd" clip-rule="evenodd" d="M27.1429 42.2177L28.8585 40.502L35.4763 33.884L37.1923 32.1684C37.6511 31.7095 38.4001 31.7095 38.8589 32.1684C39.318 32.6275 39.318 33.3764 38.8589 33.8353L37.143 35.5509L30.5252 42.1687L28.8095 43.8846C28.3507 44.3435 27.6017 44.3435 27.1429 43.8846C26.6838 43.4255 26.6838 42.6766 27.1429 42.2177V42.2177Z" fill="#FAFAFA"/>
<path fill-rule="evenodd" clip-rule="evenodd" d="M37.1903 33.832L35.4747 32.1161L28.8566 25.4983L27.141 23.7824C26.6822 23.3235 26.6822 22.5746 27.141 22.1158C27.6001 21.6567 28.3491 21.6567 28.8079 22.1161L30.5235 23.8317L37.1414 30.4495L38.8573 32.1651C39.3161 32.6242 39.3161 33.3729 38.8573 33.832C38.3982 34.2909 37.6495 34.2909 37.1904 33.832H37.1903Z" fill="#FAFAFA"/>
</svg>
