<svg xmlns="http://www.w3.org/2000/svg" version="1.1" xmlns:xlink="http://www.w3.org/1999/xlink" width="512" height="512" x="0" y="0" viewBox="0 0 24 24" style="enable-background:new 0 0 512 512" xml:space="preserve" class=""><g><path fill="#ffffff" fill-rule="evenodd" d="M10.2 2.25h-.033c-1.232 0-2.203 0-2.984.064-.796.065-1.462.2-2.066.508a5.25 5.25 0 0 0-2.295 2.295c-.308.604-.443 1.27-.508 2.066-.064.781-.064 1.752-.064 2.984v3.666c0 1.232 0 2.203.064 2.984.065.796.2 1.462.508 2.067a5.25 5.25 0 0 0 2.295 2.294c.604.308 1.27.443 2.066.508.781.064 1.752.064 2.984.064h3.666c1.232 0 2.203 0 2.984-.064.796-.065 1.462-.2 2.067-.508a5.251 5.251 0 0 0 2.294-2.295c.308-.604.443-1.27.508-2.066.064-.781.064-1.752.064-2.984v-3.666c0-1.232 0-2.203-.064-2.984-.065-.796-.2-1.462-.508-2.066a5.25 5.25 0 0 0-2.295-2.295c-.604-.308-1.27-.443-2.066-.508-.781-.064-1.752-.064-2.984-.064H13.8zM3.803 16.622l.006.073c.057.704.167 1.15.35 1.508a3.75 3.75 0 0 0 1.639 1.638c.357.183.803.293 1.507.35.713.058 1.623.059 2.895.059h3.6c1.272 0 2.182 0 2.894-.059.704-.057 1.15-.167 1.508-.35a3.75 3.75 0 0 0 1.64-1.639c.182-.358.292-.804.35-1.508l.005-.072-.635-.621-.021-.021a17.678 17.678 0 0 0-.963-.902c-.288-.24-.585-.438-.94-.551a2.749 2.749 0 0 0-1.676 0c-.355.113-.652.312-.94.551-.276.23-.589.536-.963.902l-.013.013-1.653-1.91-.02-.024c-.37-.427-.678-.783-.952-1.051-.286-.28-.584-.515-.953-.657a2.75 2.75 0 0 0-1.762-.073c-.38.11-.697.32-1.004.575-.296.244-.632.573-1.036.968l-.023.022zM16 10a2 2 0 1 0 0-4 2 2 0 0 0 0 4z" clip-rule="evenodd" opacity="1" data-original="#000000" class=""></path></g></svg>