<svg width="185" height="143" viewBox="0 0 185 143" fill="none" xmlns="http://www.w3.org/2000/svg">
<g id="Group">
<g id="Group_2">
<path id="Vector" fill-rule="evenodd" clip-rule="evenodd" d="M27.156 36.5025C18.0342 47.9725 15.5 61.8838 15.5 70.928V127.387H72.9895V71.1683H43.4155V63.4183C43.4155 46.6085 53.3277 37.448 62.527 32.922C65.8636 31.3058 69.3738 30.0759 72.9895 29.2563V15.7403C48.9645 17.3445 35.1695 26.4198 27.156 36.5103V36.5025ZM15.035 26.8693C27.249 11.501 47.8795 0 80.7395 0H88.4895V43.2218L81.1735 43.6015H81.0263C79.882 43.7094 78.7439 43.8749 77.6162 44.0975C75.2835 44.5625 72.2765 45.3995 69.3703 46.8255C65.6348 48.6623 62.217 51.336 60.3647 55.6605H88.4895V142.879H0V70.928C0 59.5743 3.0845 41.8733 15.0273 26.8693H15.035ZM123.38 36.5025C114.251 47.9725 111.716 61.8838 111.716 70.928V127.387H169.206V71.1683H139.632V63.4183C139.632 46.6085 149.552 37.448 158.751 32.922C162.085 31.3063 165.593 30.0765 169.206 29.2563V15.7403C145.181 17.3445 131.393 26.4198 123.372 36.5103L123.38 36.5025ZM111.236 26.8693C123.45 11.501 144.08 0 176.948 0H184.698V43.2218L177.374 43.6015H177.243C176.098 43.7094 174.96 43.8749 173.833 44.0975C171.508 44.5625 168.493 45.3995 165.586 46.8255C161.851 48.6623 158.433 51.336 156.581 55.6605H184.706V142.879H96.2162V70.928C96.2162 59.5665 99.3008 41.8733 111.243 26.8615L111.236 26.8693Z" fill="#84ACD4" fill-opacity="0.25"/>
</g>
</g>
</svg>
