<svg width="25" height="29" viewBox="0 0 25 29" fill="none" xmlns="http://www.w3.org/2000/svg">
<path d="M24.7352 26.7073L20.0659 21.3978C21.9352 18.9065 22.8634 15.7117 22.6565 12.4805C22.4497 9.24927 21.1239 6.23145 18.9559 4.05712C16.7879 1.88279 13.9453 0.720052 11.0217 0.811672C8.09804 0.903291 5.31938 2.24219 3.26585 4.54881C1.21233 6.85543 0.0426852 9.95146 0.00114537 13.1905C-0.0403945 16.4294 1.04938 19.561 3.04292 21.9313C5.03647 24.3016 7.77967 25.7274 10.6998 25.9109C13.6199 26.0945 16.4911 25.0216 18.714 22.9164L23.3641 28.2258C23.5497 28.413 23.7941 28.5121 24.0449 28.5019C24.2322 28.5011 24.4153 28.4396 24.5714 28.3248C24.7275 28.2101 24.8498 28.0472 24.9233 27.8562C24.9967 27.6653 25.018 27.4548 24.9846 27.2506C24.9512 27.0464 24.8645 26.8575 24.7352 26.7073ZM11.3697 23.7871C9.51509 23.7871 7.70215 23.178 6.16012 22.0369C4.61809 20.8957 3.41622 19.2737 2.7065 17.3761C1.99678 15.4784 1.81109 13.3903 2.1729 11.3757C2.53471 9.36113 3.42778 7.51064 4.73917 6.05823C6.05056 4.60581 7.72137 3.61671 9.54032 3.21599C11.3593 2.81526 13.2447 3.02093 14.9581 3.80697C16.6715 4.59301 18.136 5.92413 19.1663 7.63199C20.1967 9.33985 20.7466 11.3477 20.7466 13.4018C20.7441 16.1553 19.7553 18.7952 17.9974 20.7422C16.2394 22.6892 13.8558 23.7843 11.3697 23.7871Z" fill="#CBD5DC"/>
</svg>
