<svg width="23" height="14" viewBox="0 0 23 14" fill="none" xmlns="http://www.w3.org/2000/svg">
<g id="Group">
<path id="Vector" d="M22.1862 6.45539C21.9934 6.19175 17.4014 0 11.5365 0C5.67166 0 1.07941 6.19175 0.886894 6.45514C0.797937 6.57701 0.75 6.72399 0.75 6.87487C0.75 7.02576 0.797937 7.17274 0.886894 7.29461C1.07941 7.55825 5.67166 13.75 11.5365 13.75C17.4014 13.75 21.9934 7.55821 22.1862 7.29482C22.2752 7.17301 22.3233 7.02601 22.3233 6.87511C22.3233 6.7242 22.2752 6.57721 22.1862 6.45539ZM11.5365 12.3276C7.21643 12.3276 3.47477 8.218 2.36715 6.87452C3.47333 5.52985 7.20716 1.42241 11.5365 1.42241C15.8564 1.42241 19.5978 5.53128 20.7059 6.87548C19.5997 8.22011 15.8659 12.3276 11.5365 12.3276Z" fill="#FAFAFA"/>
<path id="Vector_2" d="M11.5368 2.60742C9.18387 2.60742 7.26953 4.52176 7.26953 6.87468C7.26953 9.22761 9.18387 11.1419 11.5368 11.1419C13.8897 11.1419 15.8041 9.22761 15.8041 6.87468C15.8041 4.52176 13.8897 2.60742 11.5368 2.60742ZM11.5368 9.7195C9.96809 9.7195 8.69198 8.44334 8.69198 6.87468C8.69198 5.30602 9.96813 4.02987 11.5368 4.02987C13.1055 4.02987 14.3816 5.30602 14.3816 6.87468C14.3816 8.44334 13.1055 9.7195 11.5368 9.7195Z" fill="#FAFAFA"/>
</g>
</svg>
