<svg xmlns="http://www.w3.org/2000/svg" version="1.1" xmlns:xlink="http://www.w3.org/1999/xlink" width="512" height="512" x="0" y="0" viewBox="0 0 512 512" style="enable-background:new 0 0 512 512" xml:space="preserve" class=""><g><path d="M375.959 203.164s-23.949-20.064-52.191-11.585c-25.932 7.786-29.559 37.587-10.798 49.777 0 0 18.409 8.185 38.828 15.692 49.151 18.069 27.979 65.462-11.589 65.462-19.815 0-36.445-8.648-46.51-19.718M131.631 189.49l45.632 131.023c.956 2.682 4.771 2.656 5.691-.039l43.578-130.741" style="stroke-width:40;stroke-linecap:round;stroke-linejoin:round;stroke-miterlimit:10;" fill="none" stroke="#ffffff" stroke-width="40" stroke-linecap="round" stroke-linejoin="round" stroke-miterlimit="10" data-original="#000000" class="" opacity="1"></path><path d="M458.676 376.976C479.838 341.599 492 300.22 492 256c0-130.339-105.661-236-236-236S20 125.661 20 256s105.661 236 236 236c49.915 0 96.211-15.496 134.339-41.94" style="stroke-width:40;stroke-linecap:round;stroke-linejoin:round;stroke-miterlimit:10;" fill="none" stroke="#ffffff" stroke-width="40" stroke-linecap="round" stroke-linejoin="round" stroke-miterlimit="10" data-original="#000000" class="" opacity="1"></path></g></svg>