<svg width="280" height="56" viewBox="0 0 280 56" fill="none" xmlns="http://www.w3.org/2000/svg">
<path d="M55.2632 55.1961C59.0193 55.1401 62.6041 53.4915 65.2419 50.607C67.8797 47.7225 69.3586 43.834 69.3586 39.7826C69.3586 35.7312 67.8797 31.8427 65.2419 28.9582C62.6041 26.0737 59.0193 24.4251 55.2632 24.3691C51.507 24.4251 47.9223 26.0737 45.2844 28.9582C42.6466 31.8427 41.1677 35.7312 41.1677 39.7826C41.1677 43.834 42.6466 47.7225 45.2844 50.607C47.9223 53.4915 51.507 55.1401 55.2632 55.1961Z" fill="white"/>
<path d="M93.3615 1.4668H52.2554C58.508 5.37012 63.6985 10.9787 67.3059 17.7296C70.9132 24.4804 72.8105 32.1359 72.8071 39.9276L93.3615 1.4668Z" fill="white"/>
<path d="M52.5395 1.4668H11.4333C17.7053 5.34638 22.9116 10.9497 26.5219 17.706C30.1321 24.4622 32.0172 32.1298 31.9851 39.9276L52.5395 1.4668Z" fill="white"/>
<path d="M14.1569 55.1964C16.9895 55.2256 19.7662 54.3464 22.1346 52.6704C24.503 50.9945 26.3562 48.5973 27.459 45.7833C28.5618 42.9693 28.8644 39.8653 28.3284 36.8655C27.7924 33.8656 26.442 31.1052 24.4487 28.9346C22.4553 26.764 19.9088 25.2812 17.1326 24.6743C14.3563 24.0675 11.4755 24.3641 8.85584 25.5263C6.23616 26.6886 3.99577 28.6642 2.41911 31.2022C0.842448 33.7403 0.000616227 36.7264 0.000486872 39.7814C-0.01501 41.798 0.339579 43.798 1.04383 45.6662C1.74808 47.5343 2.78808 49.2337 4.10392 50.6666C5.41976 52.0994 6.98545 53.2373 8.7108 54.0147C10.4361 54.7921 12.2871 55.1938 14.1569 55.1964Z" fill="white"/>
<path d="M169.558 27.7451C169.558 31.2807 169.285 35.0843 169.151 36.2599C168.332 46.9755 165.747 55.1957 153.498 55.1957C141.655 55.1957 138.524 46.5336 137.981 36.2599C137.981 35.6707 137.574 32.2972 137.574 27.5978C137.558 24.7045 137.694 21.8126 137.981 18.9358C138.661 9.39275 141.259 0 153.498 0C166.564 0 168.471 8.95376 169.151 18.9358C169.427 21.8618 169.563 24.8041 169.558 27.7451ZM160.439 27.5949C160.439 22.7512 160.166 20.403 160.166 18.9328C160.166 13.9418 158.942 9.24544 153.768 9.24544C148.324 9.24544 147.37 13.9418 147.37 18.9328C147.37 20.2528 147.097 22.763 147.097 27.5949C147.097 32.1469 147.37 35.2287 147.37 36.257C147.507 43.4488 149.684 45.9443 153.632 45.9443C157.716 45.9443 160.03 43.4488 160.166 36.1096C160.166 35.0843 160.437 32.7362 160.437 27.5978L160.439 27.5949Z" fill="white"/>
<path d="M129.299 1.4668L121.404 19.9636L114.189 1.4668H104.527L116.913 32.4411V54.0197H125.761V32.2938L138.828 1.4668H129.299Z" fill="white"/>
<path d="M210.58 1.4668V54.0197H236.306V44.4825H219.428V32.2938H234.809V22.7507H219.428V11.0098H236.306V1.4668H210.58Z" fill="white"/>
<path d="M260.179 27.5974L271.885 1.4668H262.086L255.281 16.5871L248.473 1.4668H238.674L250.38 27.5974L238.674 54.0197H248.339L255.281 38.6076L262.223 54.0197H272.022L260.179 27.5974Z" fill="white"/>
<path d="M195.503 1.4668V30.0929L182.709 1.4668H174.951V54.0197H183.799V25.5409L196.459 54.0197H204.354V1.4668H195.505" fill="white"/>
<path d="M273.109 50.9499C273.109 50.3089 273.285 49.6823 273.616 49.1493C273.946 48.6164 274.415 48.201 274.964 47.9557C275.513 47.7104 276.118 47.6462 276.7 47.7713C277.283 47.8963 277.819 48.205 278.239 48.6582C278.659 49.1115 278.946 49.689 279.061 50.3176C279.177 50.9463 279.118 51.5979 278.89 52.1901C278.663 52.7823 278.278 53.2885 277.784 53.6446C277.29 54.0007 276.709 54.1908 276.114 54.1908C275.319 54.1862 274.557 53.8432 273.994 53.2364C273.431 52.6297 273.113 51.808 273.109 50.9499ZM276.114 53.8962C276.654 53.8962 277.183 53.7234 277.632 53.3996C278.081 53.0759 278.431 52.6158 278.638 52.0774C278.845 51.539 278.899 50.9466 278.794 50.3751C278.688 49.8036 278.428 49.2786 278.046 48.8666C277.664 48.4545 277.177 48.1739 276.647 48.0602C276.117 47.9465 275.568 48.0049 275.069 48.2279C274.57 48.4509 274.143 48.8285 273.843 49.313C273.543 49.7976 273.382 50.3672 273.382 50.9499C273.387 51.7277 273.677 52.4718 274.189 53.0199C274.701 53.568 275.393 53.8756 276.114 53.8756V53.8962ZM275.295 49.4768V50.7967H276.387C276.461 50.8045 276.535 50.7946 276.605 50.7677C276.674 50.7409 276.737 50.6977 276.79 50.6414C276.842 50.585 276.882 50.5169 276.907 50.4418C276.932 50.3668 276.941 50.2868 276.934 50.2074C276.934 49.6182 276.661 49.4738 276.387 49.4738L275.295 49.4768ZM274.888 49.1821H276.385C276.931 49.1821 277.338 49.3294 277.477 50.066C277.482 50.2381 277.448 50.4088 277.377 50.563C277.306 50.7172 277.2 50.8501 277.07 50.9499C277.343 51.2445 277.477 51.2445 277.477 51.8338C277.477 52.2728 277.477 52.423 277.614 52.5674V52.7147H276.934C276.934 52.5674 276.797 52.4201 276.797 52.2757C276.797 51.8367 276.934 51.2475 276.251 51.2475H275.158V52.7206H274.748V49.1821H274.888Z" fill="white"/>
</svg>
